<?xml version="1.0" encoding="utf-8"?>
<!-- Generator: Adobe Illustrator 19.2.0, SVG Export Plug-In . SVG Version: 6.00 Build 0)  -->
<svg version="1.1" id="Layer_1" xmlns="http://www.w3.org/2000/svg" xmlns:xlink="http://www.w3.org/1999/xlink" x="0px" y="0px"
	 viewBox="0 0 1600 900" style="enable-background:new 0 0 1600 900;" xml:space="preserve">
<path d="M1187.1,139.1L905.6,286.5L878.5,87.1l94.6-83.5H783.7c-28.7,0-53.6,20.9-57.6,50.1L702,229.2l97.9,112.6L412.9,139.1
	c-20.7-10.8-42-1.1-47.4,21.5L220.3,768.4l64.3,12.9c22.9,4.6,45.4-10.3,50-33.2l19.1-93.6l59.3,12c22.9,4.6,44.8-10.4,48.7-33.4
	l0,0l16.1-94.2L533,550c0,0,0,0,0,0c22.8,4.6,44.1-10.6,47.3-33.6l13-94.9l80.2,16.1l-46.9,342.3l114.8,23.1l58.6,93.5l58.3-93.2
	l114.8-22.5l-46.8-343.2l80.4-16.2l13,94.9c3.1,23.1,24.5,38.2,47.3,33.6l0,0l55.2-11.1l16,94.2c3.9,23,25.8,38,48.7,33.4l59.3-12
	l19.1,93.6c4.7,22.9,27.2,37.8,50,33.2l64.4-12.9l-145.1-607.8C1229.1,137.9,1207.8,128.2,1187.1,139.1z"/>
</svg>
